# Blender v2.76 (sub 0) OBJ File: 'Brain Model 10-13-16.blend'
# www.blender.org
mtllib A_AntCommunicatingA.mtl
o A_AntCommunicatingA_A_R_ACA_Cylinder.001
v 7.130063 48.216320 -196.414581
v 6.971444 48.234066 -196.281662
v 8.573027 48.574009 -196.226074
v 8.668184 48.654675 -196.059998
v 8.237391 52.100147 -198.046265
v 8.163954 51.947803 -198.166901
v 8.745050 48.809483 -195.684387
v 8.726271 48.734180 -195.877090
v 7.119559 48.827961 -194.762085
v 7.299048 48.893894 -194.680923
v 7.506474 48.227978 -196.585220
v 7.310721 48.214260 -196.517090
v 8.663347 48.936192 -195.299423
v 8.723806 48.877697 -195.489349
v 6.833934 48.675518 -195.019226
v 6.962512 48.754230 -194.876312
v 7.912874 48.300060 -196.609329
v 7.709795 48.256947 -196.616379
v 8.435514 49.015469 -194.963654
v 8.566004 48.982708 -195.121918
v 6.680688 48.515339 -195.368225
v 6.738774 48.594860 -195.185318
v 8.287401 48.421558 -196.483200
v 8.107908 48.355640 -196.564362
v 6.683156 48.371838 -195.755951
v 6.661906 48.440037 -195.560898
v 8.096235 49.035275 -194.728195
v 8.276896 49.033215 -194.830704
v 8.444448 48.495304 -196.369003
v 6.840956 48.266827 -196.123398
v 6.743609 48.313343 -195.945877
v 7.697161 48.992573 -194.628937
v 7.900484 49.021557 -194.660049
v 7.494081 48.949467 -194.635971
v 7.911863 51.688572 -198.367371
v 8.054037 51.808826 -198.275314
v 6.568646 51.631359 -198.363327
v 6.417323 51.739109 -198.270386
v 6.875807 53.069706 -197.210068
v 7.078092 53.109837 -197.185150
v 6.744802 51.549129 -198.436508
v 8.265055 52.421238 -197.787308
v 8.271524 52.260006 -197.918106
v 6.517587 52.902912 -197.331696
v 6.686547 52.999836 -197.259552
v 7.143828 51.472805 -198.513275
v 6.939017 51.495594 -198.487152
v 8.132811 52.723225 -197.537796
v 8.218218 52.577648 -197.658890
v 6.265500 52.643681 -197.532181
v 6.375416 52.782658 -197.423752
v 7.553641 51.521778 -198.488998
v 7.351359 51.481647 -198.513901
v 7.860804 52.960140 -197.335739
v 8.012133 52.852375 -197.428680
v 6.157926 52.331478 -197.780945
v 6.192065 52.491337 -197.652771
v 7.742903 51.591648 -198.439514
v 6.211240 52.013844 -198.040176
v 6.164399 52.170254 -197.911758
v 7.490433 53.095898 -197.211914
v 7.684649 53.042347 -197.262543
v 6.296638 51.868259 -198.161270
v 7.285621 53.118679 -197.185791
v 6.681050 52.871754 -198.037720
v 6.566979 52.803379 -197.970856
v 6.473653 52.722736 -197.887497
v 6.404650 52.632900 -197.790909
v 6.362626 52.537334 -197.684799
v 6.349196 52.439724 -197.573181
v 6.364881 52.343800 -197.460434
v 6.409068 52.253254 -197.350845
v 6.480069 52.171581 -197.248627
v 6.575149 52.101887 -197.157730
v 6.690654 52.046886 -197.081589
v 6.822146 52.008671 -197.023209
v 6.964580 51.988728 -196.984772
v 7.112470 51.987797 -196.967789
v 7.260140 52.005932 -196.972900
v 7.401916 52.042431 -196.999908
v 7.532342 52.095898 -197.047775
v 7.646411 52.164272 -197.114670
v 7.739744 52.244923 -197.198013
v 7.808744 52.334751 -197.294586
v 7.850763 52.430325 -197.400742
v 7.864191 52.527935 -197.512314
v 7.848513 52.623867 -197.625061
v 7.804319 52.714413 -197.734665
v 7.733320 52.796093 -197.836868
v 7.638243 52.865772 -197.927795
v 7.522733 52.920780 -198.003906
v 7.391234 52.958988 -198.062302
v 7.248812 52.978947 -198.100739
v 7.100913 52.979870 -198.117737
v 6.953246 52.961727 -198.112625
v 6.811473 52.925228 -198.085602
v 6.870953 49.220058 -195.228271
v 7.021822 49.235340 -195.086304
v 5.422096 49.586796 -195.118988
v 5.318153 49.666584 -194.957794
v 5.885944 53.127499 -196.881821
v 5.965099 52.975773 -196.999542
v 5.220997 49.818386 -194.585693
v 5.250250 49.744785 -194.777740
v 6.791130 49.815800 -193.571854
v 6.607754 49.882305 -193.500443
v 6.505014 49.236187 -195.419998
v 6.696447 49.220341 -195.340942
v 5.281414 49.940784 -194.195450
v 5.231520 49.884556 -194.389099
v 7.089933 49.663677 -193.813751
v 6.953938 49.741985 -193.677628
v 6.101171 49.311543 -195.466583
v 6.304016 49.266979 -195.462433
v 5.490206 50.015141 -193.846436
v 5.368761 49.984867 -194.012207
v 7.261780 49.505695 -194.154984
v 7.193876 49.583889 -193.974915
v 5.720900 49.434666 -195.360870
v 5.904276 49.368160 -195.432281
v 7.280506 49.365902 -194.543640
v 7.291032 49.432087 -194.347015
v 5.815586 50.030140 -193.591782
v 5.641077 50.030422 -193.704468
v 5.558088 49.508488 -195.255081
v 7.143269 49.265598 -194.920517
v 7.230616 49.309689 -194.737274
v 6.208015 49.983486 -193.470291
v 6.007015 50.014286 -193.512695
v 6.410862 49.938931 -193.466156
v 6.226435 52.716579 -197.187851
v 6.080065 52.837009 -197.102890
v 7.566787 52.649204 -197.107605
v 7.713289 52.754917 -197.005096
v 7.204166 54.078762 -195.959534
v 7.001074 54.120167 -195.945831
v 7.394539 52.569004 -197.191559
v 5.845743 53.446316 -196.621658
v 5.845642 53.286381 -196.754227
v 7.567587 53.910435 -196.062149
v 7.395454 54.007946 -195.998795
v 7.000036 52.496426 -197.291763
v 7.203171 52.517422 -197.253754
v 5.965593 53.744900 -196.362000
v 5.886245 53.601131 -196.489243
v 7.828922 53.651241 -196.250458
v 7.713951 53.789997 -196.147110
v 6.589857 52.548252 -197.290482
v 6.792948 52.506840 -197.304169
v 6.227238 53.977810 -196.142395
v 6.080725 53.872082 -196.244888
v 7.948378 53.340626 -196.495758
v 7.908075 53.499516 -196.368179
v 6.398565 52.619068 -197.251190
v 7.907772 53.025883 -196.760773
v 7.948278 53.180698 -196.628342
v 6.590853 54.109592 -195.996246
v 6.399482 54.058010 -196.058441
v 7.828430 52.882114 -196.888000
v 6.793985 54.130573 -195.958237
v 7.642004 53.735256 -196.616287
v 7.704737 53.643978 -196.516815
v 7.739948 53.547092 -196.409424
v 7.746286 53.448315 -196.298218
v 7.723509 53.351444 -196.187515
v 7.672493 53.260197 -196.081528
v 7.595188 53.178089 -195.984344
v 7.494577 53.108250 -195.899734
vt 0.312605 0.551345
vn -0.897600 0.131700 0.420700
vn 0.710800 0.428800 0.557600
vn 0.170000 -0.502400 -0.847700
vn 0.559500 0.478300 0.676900
vn -0.992700 -0.075900 0.093200
vn 0.519000 -0.398700 -0.756100
vn 0.206900 0.518800 0.829500
vn -0.927000 -0.277100 -0.252900
vn 0.798600 -0.235200 -0.554000
vn -0.167200 0.484500 0.858700
vn -0.710400 -0.434200 -0.553900
vn 0.964700 -0.031700 -0.261600
vn -0.516200 0.383800 0.765600
vn 0.980300 0.180000 0.081300
vn -0.387900 -0.520800 -0.760500
vn -0.797000 0.226800 0.559800
vn 0.835500 0.360800 0.414400
vn -0.017000 -0.527900 -0.849100
vn -0.964300 0.029500 0.263200
vn 0.350400 -0.459000 -0.816400
vn 0.389300 0.508200 0.768200
vn -0.980300 -0.179800 -0.081500
vn 0.670200 -0.323500 -0.668000
vn 0.019600 0.510500 0.859700
vn -0.835300 -0.363300 -0.412700
vn 0.898500 -0.136800 -0.417200
vn -0.347500 0.441900 0.827000
vn 0.992800 0.075500 -0.093000
vn -0.558700 -0.487300 -0.671100
vn -0.667900 0.311600 0.675900
vn 0.927000 0.276700 0.253200
vn -0.205200 -0.534300 -0.820000
vn -0.070200 0.755000 0.652000
vn -0.872900 -0.121000 -0.472600
vn 0.738600 -0.428700 -0.520300
vn 0.124700 0.493000 0.861000
vn 0.594000 -0.476000 -0.648500
vn -0.985200 0.084200 -0.149100
vn 0.477700 0.387600 0.788400
vn 0.250500 -0.512400 -0.821400
vn -0.938000 0.281700 0.202200
vn 0.767200 0.223900 0.601100
vn -0.121000 -0.475000 -0.871600
vn -0.737800 0.434300 0.516800
vn 0.948300 0.022000 0.316600
vn -0.474200 -0.372600 -0.797700
vn 0.982100 -0.186600 -0.027000
vn -0.427200 0.516400 0.742200
vn -0.765200 -0.215400 -0.606700
vn 0.855300 -0.363100 -0.369600
vn -0.062000 0.519900 0.852000
vn -0.947800 -0.019800 -0.318200
vn 0.306300 0.448500 0.839600
vn 0.429000 -0.503800 -0.749800
vn -0.982100 0.186400 0.027100
vn 0.633100 0.312000 0.708400
vn 0.065100 -0.502400 -0.862200
vn -0.855000 0.365600 0.367900
vn 0.874100 0.126000 0.469200
vn -0.302800 -0.431300 -0.849900
vn 0.985300 -0.083900 0.148900
vn -0.592800 0.485100 0.642900
vn -0.630300 -0.300100 -0.716000
vn 0.938000 -0.281200 -0.202500
vn -0.247800 0.528000 0.812300
usemtl Material.080
s off
f 3/1/1 4/1/1 5/1/1 6/1/1
f 30/1/2 2/1/2 37/1/2 38/1/2
f 32/1/3 34/1/3 39/1/3 40/1/3
f 2/1/4 1/1/4 41/1/4 37/1/4
f 8/1/5 7/1/5 42/1/5 43/1/5
f 10/1/6 9/1/6 44/1/6 45/1/6
f 12/1/7 11/1/7 46/1/7 47/1/7
f 14/1/8 13/1/8 48/1/8 49/1/8
f 16/1/9 15/1/9 50/1/9 51/1/9
f 18/1/10 17/1/10 52/1/10 53/1/10
f 20/1/11 19/1/11 54/1/11 55/1/11
f 22/1/12 21/1/12 56/1/12 57/1/12
f 24/1/13 23/1/13 35/1/13 58/1/13
f 26/1/14 25/1/14 59/1/14 60/1/14
f 28/1/15 27/1/15 61/1/15 62/1/15
f 29/1/16 3/1/16 6/1/16 36/1/16
f 31/1/17 30/1/17 38/1/17 63/1/17
f 33/1/18 32/1/18 40/1/18 64/1/18
f 4/1/19 8/1/19 43/1/19 5/1/19
f 34/1/20 10/1/20 45/1/20 39/1/20
f 1/1/21 12/1/21 47/1/21 41/1/21
f 7/1/22 14/1/22 49/1/22 42/1/22
f 9/1/23 16/1/23 51/1/23 44/1/23
f 11/1/24 18/1/24 53/1/24 46/1/24
f 13/1/25 20/1/25 55/1/25 48/1/25
f 15/1/26 22/1/26 57/1/26 50/1/26
f 17/1/27 24/1/27 58/1/27 52/1/27
f 21/1/28 26/1/28 60/1/28 56/1/28
f 19/1/29 28/1/29 62/1/29 54/1/29
f 23/1/30 29/1/30 36/1/30 35/1/30
f 25/1/31 31/1/31 63/1/31 59/1/31
f 27/1/32 33/1/32 64/1/32 61/1/32
f 65/1/33 66/1/33 67/1/33 68/1/33 69/1/33 70/1/33 71/1/33 72/1/33 73/1/33 74/1/33 75/1/33 76/1/33 77/1/33 78/1/33 79/1/33 80/1/33 81/1/33 82/1/33 83/1/33 84/1/33 85/1/33 86/1/33 87/1/33 88/1/33 89/1/33 90/1/33 91/1/33 92/1/33 93/1/33 94/1/33 95/1/33 96/1/33
f 99/1/34 100/1/34 101/1/34 102/1/34
f 126/1/35 98/1/35 133/1/35 134/1/35
f 128/1/36 130/1/36 135/1/36 136/1/36
f 98/1/37 97/1/37 137/1/37 133/1/37
f 104/1/38 103/1/38 138/1/38 139/1/38
f 106/1/39 105/1/39 140/1/39 141/1/39
f 108/1/40 107/1/40 142/1/40 143/1/40
f 110/1/41 109/1/41 144/1/41 145/1/41
f 112/1/42 111/1/42 146/1/42 147/1/42
f 114/1/43 113/1/43 148/1/43 149/1/43
f 116/1/44 115/1/44 150/1/44 151/1/44
f 118/1/45 117/1/45 152/1/45 153/1/45
f 120/1/46 119/1/46 131/1/46 154/1/46
f 122/1/47 121/1/47 155/1/47 156/1/47
f 124/1/48 123/1/48 157/1/48 158/1/48
f 125/1/49 99/1/49 102/1/49 132/1/49
f 127/1/50 126/1/50 134/1/50 159/1/50
f 129/1/51 128/1/51 136/1/51 160/1/51
f 100/1/52 104/1/52 139/1/52 101/1/52
f 130/1/53 106/1/53 141/1/53 135/1/53
f 97/1/54 108/1/54 143/1/54 137/1/54
f 103/1/55 110/1/55 145/1/55 138/1/55
f 105/1/56 112/1/56 147/1/56 140/1/56
f 107/1/57 114/1/57 149/1/57 142/1/57
f 109/1/58 116/1/58 151/1/58 144/1/58
f 111/1/59 118/1/59 153/1/59 146/1/59
f 113/1/60 120/1/60 154/1/60 148/1/60
f 117/1/61 122/1/61 156/1/61 152/1/61
f 115/1/62 124/1/62 158/1/62 150/1/62
f 119/1/63 125/1/63 132/1/63 131/1/63
f 121/1/64 127/1/64 159/1/64 155/1/64
f 123/1/65 129/1/65 160/1/65 157/1/65
l 167 168
l 163 164
l 162 163
l 161 162
l 164 165
l 166 167
l 165 166
